<svg width="167" height="72" viewBox="0 0 167 72" fill="none" xmlns="http://www.w3.org/2000/svg">
<path fill-rule="evenodd" clip-rule="evenodd" d="M166.443 26.8315C145.198 10.8572 127.114 16.0792 105.875 20.8525C86.922 25.1142 65.3683 22.1633 50.0879 8.97168C50.0879 8.97168 69.3356 24.5885 104.999 15.0278C124.92 9.68663 151.871 10.6679 166.45 26.8315" fill="#20A3FC"/>
<path fill-rule="evenodd" clip-rule="evenodd" d="M99.3699 14.7129C79.6596 5.78302 75.3138 0.974609 53.3185 0.974609C34.912 0.974609 10.2461 13.304 10.2461 13.304C40.4914 3.39984 65.2204 0.182554 99.3699 14.7129Z" fill="white"/>
<mask id="mask0_1497_5491" style="mask-type:luminance" maskUnits="userSpaceOnUse" x="50" y="8" width="50" height="7">
<mask id="mask1_1497_5491" style="mask-type:luminance" maskUnits="userSpaceOnUse" x="50" y="8" width="117" height="19">
<path d="M166.443 26.8315C145.198 10.8572 127.114 16.0792 105.875 20.8525C86.922 25.1142 65.3683 22.1633 50.0879 8.97168C50.0879 8.97168 69.3356 24.5885 104.999 15.0278C124.92 9.68663 151.871 10.6679 166.45 26.8315" fill="white"/>
</mask>
<g mask="url(#mask1_1497_5491)">
<path d="M99.3699 14.7129C79.6596 5.78302 75.3138 0.974609 53.3185 0.974609C34.912 0.974609 10.2461 13.304 10.2461 13.304C40.4914 3.39984 65.2204 0.182554 99.3699 14.7129Z" fill="white"/>
</g>
</mask>
<g mask="url(#mask0_1497_5491)">
<path d="M166.451 0.182617H10.248V26.8322H166.451V0.182617Z" fill="#20A3FC"/>
</g>
<path fill-rule="evenodd" clip-rule="evenodd" d="M32.1098 53.3074H30.778V53.1743L31.4089 50.8121H32.7827L32.1098 53.3074ZM37.6822 53.3074H35.7266L36.3995 50.8121H38.3551L37.6893 53.3074H37.6822ZM43.1495 53.3074H40.3949L41.0607 50.8121H43.8154L43.1495 53.3074ZM48.5958 53.3074H44.9579L45.6238 50.8121H49.2617L48.5958 53.3074ZM117.07 53.3074H49.8855L50.5514 50.8121H117.47L117.063 53.3074H117.07ZM16.4369 55.957C21.3154 55.957 25.6963 53.8261 28.7103 50.4546C26.1378 52.7257 22.7664 54.0995 19.0724 54.0995C11.0257 54.0995 4.5 47.5738 4.5 39.5271C4.5 31.4803 11.0257 24.9546 19.0724 24.9546C22.7664 24.9546 26.1449 26.3285 28.7103 28.5995C25.7033 25.221 21.3154 23.0972 16.4369 23.0972C7.35981 23.0972 0 30.457 0 39.5341C0 48.6112 7.35981 55.964 16.4299 55.964L16.4369 55.957Z" fill="white"/>
<mask id="mask2_1497_5491" style="mask-type:luminance" maskUnits="userSpaceOnUse" x="-1" y="23" width="119" height="33">
<path d="M32.1079 53.3079H30.7761V53.1748L31.4069 50.8126H32.7808L32.1079 53.3079ZM37.6803 53.3079H35.7247L36.3976 50.8126H38.3532L37.6873 53.3079H37.6803ZM43.1476 53.3079H40.3929L41.0588 50.8126H43.8135L43.1476 53.3079ZM48.5938 53.3079H44.956L45.6219 50.8126H49.2597L48.5938 53.3079ZM117.068 53.3079H49.8836L50.5494 50.8126H117.468L117.061 53.3079H117.068ZM16.435 55.9575C21.3135 55.9575 25.6943 53.8266 28.7083 50.4551C26.1359 52.7262 22.7644 54.1 19.0705 54.1C11.0237 54.1 4.49805 47.5743 4.49805 39.5276C4.49805 31.4808 11.0237 24.9551 19.0705 24.9551C22.7644 24.9551 26.1429 26.329 28.7083 28.6C25.7013 25.2215 21.3135 23.0977 16.435 23.0977C7.35786 23.0977 -0.00195312 30.4575 -0.00195312 39.5346C-0.00195312 48.6117 7.35786 55.9645 16.428 55.9645L16.435 55.9575Z" fill="white"/>
</mask>
<g mask="url(#mask2_1497_5491)">
<path d="M69.0191 23.0977H-0.00195312V55.9645H69.0191V23.0977Z" fill="white"/>
</g>
<path fill-rule="evenodd" clip-rule="evenodd" d="M135.223 55.9638C140.101 55.9638 144.482 53.833 147.496 50.4615C144.924 52.7325 141.552 54.1063 137.858 54.1063C129.812 54.1063 123.286 47.5806 123.286 39.5339C123.286 31.4872 129.812 24.9615 137.858 24.9615C141.552 24.9615 144.931 26.3353 147.496 28.6063C144.489 25.2278 140.101 23.104 135.223 23.104C126.146 23.104 118.793 30.4638 118.793 39.5339C118.793 48.604 126.153 55.9638 135.223 55.9638Z" fill="#20A3FC"/>
<path d="M10.6461 48.7947L10.7442 48.3671C11.2139 46.3694 11.9779 43.4886 13.0223 39.8227L14.1998 35.9255C11.5012 35.9255 9.27928 35.8975 7.59704 35.8484L7.14844 35.8344L8.68348 30.4302H29.298L27.7349 35.8414H27.4755C25.5129 35.8975 23.0667 35.9255 20.2279 35.9255H19.7162C20.1998 36.4232 20.326 37.1171 20.0877 37.9652L19.5059 40.0119C18.4335 43.7549 17.5573 46.6288 16.8984 48.5563L16.8143 48.7947H10.6461Z" fill="#20A3FC"/>
<path d="M39.333 48.7932L40.4756 44.861C40.5737 44.5035 40.5737 44.2301 40.4756 44.1039C40.4405 44.0549 40.2653 43.9007 39.5784 43.9007H32.3447L30.9288 48.7932H24.5293L24.6485 48.3516C25.2232 46.1857 26.0503 43.2138 27.0947 39.5128L29.7933 30.4287H50.583L50.4849 30.8563C50.2676 31.8096 49.833 33.4497 49.1952 35.7208C48.9288 36.618 48.5433 37.417 48.0386 38.0899C47.534 38.7698 47.0223 39.2815 46.5036 39.6039C46.3073 39.7301 46.1111 39.8353 45.9218 39.9194C46.4615 40.2278 46.8611 40.6133 47.1134 41.0619C47.4919 41.7418 47.541 42.625 47.2466 43.6834L45.7606 48.7862H39.326L39.333 48.7932ZM33.6835 39.2324C33.6835 39.2324 33.7115 39.2114 33.7256 39.1974C34.041 38.9451 34.3844 38.7628 34.7489 38.6437C35.0994 38.5315 35.4919 38.4754 35.9125 38.4754H40.5527C41.4569 38.4754 42.0176 38.0198 42.312 37.0315L42.6204 35.896H34.6368L33.6835 39.2324Z" fill="#20A3FC"/>
<path d="M46.6652 48.7939L46.7774 48.3523C47.1699 46.8453 47.997 43.8733 49.2236 39.5135C50.1769 36.114 51.0741 33.135 51.8802 30.6677L51.9573 30.4294H58.2797L54.3685 44.0766C54.4596 43.9854 54.5577 43.9083 54.6489 43.8383C54.8591 43.677 55.0904 43.5439 55.3428 43.4457C55.5881 43.3546 55.8334 43.2845 56.0858 43.2495C56.3311 43.2144 56.6045 43.1934 56.9059 43.1934H61.9526C62.3942 43.1934 62.7306 43.1023 62.9619 42.927C63.1933 42.7448 63.3685 42.4504 63.4806 42.0368L66.8101 30.4224H73.0694L72.9643 30.8569C71.9409 35.0135 70.8264 39.0439 69.6559 42.8359C69.0601 44.7705 67.9946 46.2705 66.4736 47.2728C64.9666 48.2752 62.8498 48.7798 60.1862 48.7798H46.6582L46.6652 48.7939Z" fill="#20A3FC"/>
<path d="M68.9691 48.7947L69.0883 48.3531C69.663 46.1942 70.4901 43.2222 71.5345 39.5143L74.2331 30.4302H92.6467L91.1887 35.54H90.9294C88.7985 35.5961 86.121 35.6241 82.9738 35.6241H79.1467L78.5228 37.79C78.5228 37.79 78.5789 37.7409 78.5999 37.7199C78.9504 37.4115 79.3149 37.2012 79.6794 37.082C80.0298 36.9699 80.4434 36.9138 80.892 36.9138H82.3569C85.2098 36.9138 87.656 36.9278 89.6326 36.9629H90.0883L88.6794 41.8484H88.42C86.4574 41.8834 83.9971 41.9045 81.1233 41.9045H77.3242L76.9177 43.3204H80.6397C83.7939 43.3204 86.4504 43.3484 88.5462 43.3975L89.0018 43.4115L87.4668 48.7947H68.9551H68.9691Z" fill="#20A3FC"/>
<path d="M88.1953 48.7951L88.3145 48.3536C88.8682 46.2437 89.7023 43.2718 90.7888 39.5148L93.4593 30.4307H99.8659L95.9617 44.0148C95.9617 44.0148 95.9827 43.9937 95.9897 43.9867C96.3402 43.6573 96.6976 43.433 97.0411 43.3349C97.3705 43.2437 97.7701 43.1947 98.2607 43.1947H101.821C103.952 43.1947 105.957 43.2227 107.786 43.2718L108.235 43.2858L106.679 48.7951H88.1953Z" fill="white"/>
<path d="M107.402 48.7956L107.514 48.354C108.075 46.2092 108.895 43.2302 109.968 39.5153L112.638 30.4312H118.961L118.842 30.8727C118.379 32.59 117.573 35.4849 116.367 39.7115L113.697 48.7956H107.402Z" fill="white"/>
<path d="M130.505 48.7942L123.734 38.7638C123.797 39.4717 123.734 40.1727 123.537 40.8666L121.245 48.7942H114.846L114.965 48.3526C115.54 46.2217 116.36 43.2498 117.411 39.5138L120.11 30.4297H125.479L132.271 40.4601C132.215 39.7031 132.299 38.939 132.523 38.175L134.71 30.4297H141.138L141.019 30.8713C140.549 32.6096 139.722 35.5816 138.544 39.7101L135.874 48.7942H130.505Z" fill="white"/>
<path d="M136.896 48.7947L137.015 48.3531C137.59 46.2222 138.41 43.2503 139.461 39.5143L142.16 30.4302H160.573L159.115 35.54H158.856C156.725 35.5961 154.048 35.6241 150.9 35.6241H147.073L146.449 37.79C146.449 37.79 146.505 37.7409 146.534 37.7199C146.884 37.4115 147.248 37.2012 147.613 37.082C147.963 36.9699 148.377 36.9138 148.826 36.9138H150.291C153.143 36.9138 155.59 36.9278 157.566 36.9629H158.022L156.613 41.8484H156.354C154.391 41.8834 151.931 41.9045 149.057 41.9045H145.258L144.851 43.3204H148.573C151.727 43.3204 154.384 43.3484 156.48 43.3975L156.935 43.4115L155.4 48.7947H136.889H136.896Z" fill="white"/>
<path d="M42.6731 65.1315H39.1531L38.2825 66.8096H36.4278L41.1591 57.9904H43.2157L44.818 66.8096H42.9507L42.6731 65.1315ZM42.446 63.7563L41.8152 60.0217L39.8722 63.7563H42.446ZM49.3073 58.003L48.3485 63.4409C48.3148 63.6764 48.298 63.8404 48.298 63.9329C48.298 64.3703 48.4284 64.7068 48.6891 64.9423C48.9499 65.1694 49.3199 65.2829 49.7994 65.2829C50.3713 65.2829 50.8382 65.1273 51.1999 64.8161C51.5699 64.4965 51.8097 64.0381 51.919 63.4409L52.8779 58.003H54.6569L53.698 63.4409C53.5634 64.1979 53.29 64.8371 52.8779 65.3586C52.4657 65.8717 51.9653 66.2586 51.3765 66.5194C50.7961 66.7717 50.1695 66.8979 49.4966 66.8979C48.605 66.8979 47.8816 66.6666 47.3265 66.204C46.7798 65.7413 46.5064 65.0769 46.5064 64.2105C46.5064 63.975 46.5316 63.7184 46.5821 63.4409L47.541 58.003H49.3073ZM62.3565 58.003L62.1041 59.3909H59.77L58.4579 66.8096H56.6789L57.9911 59.3909H55.6443L55.8967 58.003H62.3565ZM66.2065 66.8979C65.4663 66.8979 64.8102 66.7423 64.2383 66.4311C63.6747 66.1114 63.2373 65.6741 62.9261 65.1189C62.6149 64.5554 62.4593 63.9119 62.4593 63.1885C62.4593 62.1792 62.6822 61.2708 63.128 60.4633C63.5822 59.6558 64.2046 59.025 64.9953 58.5708C65.7943 58.1082 66.6901 57.8769 67.6826 57.8769C68.4312 57.8769 69.0873 58.0325 69.6509 58.3437C70.2228 58.6549 70.6644 59.0923 70.9756 59.6558C71.2869 60.211 71.4425 60.846 71.4425 61.561C71.4425 62.5871 71.2196 63.504 70.7738 64.3114C70.328 65.1189 69.7055 65.754 68.9065 66.2166C68.1074 66.6708 67.2074 66.8979 66.2065 66.8979ZM66.4588 65.2703C67.0897 65.2703 67.6448 65.1105 68.1242 64.7909C68.6121 64.4713 68.9864 64.0423 69.2471 63.504C69.5163 62.9572 69.6509 62.3642 69.6509 61.725C69.6509 61.0353 69.4574 60.4927 69.0705 60.0974C68.6836 59.7021 68.1411 59.5044 67.4429 59.5044C66.8205 59.5044 66.2654 59.6642 65.7775 59.9839C65.2981 60.3035 64.9238 60.7325 64.6546 61.2708C64.3939 61.8091 64.2635 62.3979 64.2635 63.0371C64.2635 63.7269 64.4527 64.2736 64.8312 64.6773C65.2182 65.0727 65.7607 65.2703 66.4588 65.2703ZM83.1528 58.003L81.601 66.8096H79.822L80.8313 61.1068L77.4753 66.8096H76.1253L74.7753 61.0941L73.7659 66.8096H71.987L73.5514 58.003H75.5575L77.2103 64.5385L81.1468 58.003H83.1528ZM87.4604 66.8979C86.7202 66.8979 86.0641 66.7423 85.4922 66.4311C84.9286 66.1114 84.4912 65.6741 84.18 65.1189C83.8688 64.5554 83.7132 63.9119 83.7132 63.1885C83.7132 62.1792 83.9361 61.2708 84.3819 60.4633C84.8361 59.6558 85.4585 59.025 86.2492 58.5708C87.0483 58.1082 87.944 57.8769 88.9366 57.8769C89.6852 57.8769 90.3412 58.0325 90.9048 58.3437C91.4768 58.6549 91.9183 59.0923 92.2296 59.6558C92.5408 60.211 92.6964 60.846 92.6964 61.561C92.6964 62.5871 92.4735 63.504 92.0277 64.3114C91.5819 65.1189 90.9595 65.754 90.1604 66.2166C89.3613 66.6708 88.4613 66.8979 87.4604 66.8979ZM87.7127 65.2703C88.3436 65.2703 88.8987 65.1105 89.3782 64.7909C89.866 64.4713 90.2403 64.0423 90.5011 63.504C90.7702 62.9572 90.9048 62.3642 90.9048 61.725C90.9048 61.0353 90.7113 60.4927 90.3244 60.0974C89.9375 59.7021 89.395 59.5044 88.6969 59.5044C88.0744 59.5044 87.5193 59.6642 87.0314 59.9839C86.552 60.3035 86.1777 60.7325 85.9085 61.2708C85.6478 61.8091 85.5174 62.3979 85.5174 63.0371C85.5174 63.7269 85.7067 64.2736 86.0852 64.6773C86.4721 65.0727 87.0146 65.2703 87.7127 65.2703ZM100.798 58.003L100.546 59.3909H98.2119L96.8998 66.8096H95.1208L96.4329 59.3909H94.0862L94.3385 58.003H100.798ZM103.854 58.003L102.302 66.8096H100.523L102.087 58.003H103.854ZM106.797 58.003L107.971 65.0054L111.63 58.003H113.509L108.728 66.8096H106.583L104.905 58.003H106.797ZM116.095 59.3783L115.691 61.6619H118.656L118.417 63.0245H115.452L115.035 65.4091H118.379L118.126 66.8096H113.004L114.568 57.9904H119.678L119.439 59.3783H116.095Z" fill="white"/>
</svg>
